<svg xmlns="http://www.w3.org/2000/svg" width="16" height="16" viewBox="0 0 16 16">
  <style>
    path { fill: #424242; }
    @media (prefers-color-scheme: dark) {
      path { fill: #C0C0C0; }
    }
  </style>
  <path d="M14.838 2.836c-0.248 3.097-2.419 2.456-2.419 0.317h0c0-1.689-1.796-2.311-2.356-0.443-1.264-1.293-2.923-1.27-4.174 0.067-0.529-1.976-2.381-1.362-2.381 0.354 0 2.139-2.171 2.78-2.419-0.317-1.16 1.316-1.016 2.799 0.039 3.853 0.76 0.76 2.020 0.804 3.073 0.279-0.082 0.609-0.126 1.27-0.126 1.985 1.349 1.36 1.796 3.237 1.796 5.734 0.383 0.363 0.778 0.616 1.18 0.762 0.155-1.147 0.019-2.251-0.018-3.371l0.876 1.286 0.923-1.302c-0.023 1.12-0.118 2.24-0.023 3.36 0.396-0.15 0.791-0.396 1.18-0.735 0-2.419 0.259-4.404 1.954-5.734 0-0.689-0.041-1.327-0.117-1.917 1.032 0.476 2.24 0.411 2.976-0.325 1.054-1.054 1.199-2.537 0.039-3.853zM5.922 9.699c-0.478 0-0.908-0.688-0.961-1.537s0.291-1.537 0.769-1.537c0.478 0 0.908 0.688 0.961 1.537s-0.291 1.537-0.769 1.537zM10.9 8.163c-0.053 0.849-0.483 1.537-0.961 1.537s-0.822-0.688-0.769-1.537 0.483-1.537 0.961-1.537c0.478 0 0.822 0.688 0.769 1.537z"/>
</svg>